<?xml version="1.0" standalone="no"?>
<!DOCTYPE svg PUBLIC "-//W3C//DTD SVG 20010904//EN"
 "http://www.w3.org/TR/2001/REC-SVG-20010904/DTD/svg10.dtd">
<svg version="1.0" xmlns="http://www.w3.org/2000/svg"
 width="121.000000pt" height="121.000000pt" viewBox="0 0 121.000000 121.000000"
 preserveAspectRatio="xMidYMid meet">
<metadata>
Created by potrace 1.14, written by Peter Selinger 2001-2017
</metadata>
<g transform="translate(0.000000,121.000000) scale(0.100000,-0.100000)"
fill="#000000" stroke="none">
<path d="M0 1124 c0 -54 4 -83 10 -79 10 6 11 -5 12 -155 l0 -85 13 80 c7 44
14 100 14 125 1 25 6 52 12 60 7 11 8 5 4 -22 -2 -21 -1 -38 4 -38 4 0 13 -10
18 -22 13 -27 17 -20 31 62 8 48 10 51 11 18 2 -58 19 -54 26 7 7 56 29 80 23
25 -1 -16 2 -30 7 -30 5 0 10 10 10 23 0 13 5 21 13 19 10 -2 12 4 7 20 -5 18
-4 20 4 8 14 -20 14 -57 0 -62 -7 -2 -11 -31 -10 -78 1 -71 10 -98 28 -87 13
8 3 87 -11 87 -7 0 -7 3 2 8 6 5 13 32 15 63 2 51 3 53 19 37 10 -10 22 -18
27 -18 5 0 12 -15 16 -32 l8 -33 4 30 c2 17 6 41 9 55 9 42 24 0 26 -75 2 -48
6 -65 16 -65 10 0 12 6 7 18 -16 36 -14 139 3 175 17 36 17 36 92 40 l75 3
-85 0 c-81 -1 -84 -2 -92 -26 -7 -24 -8 -24 -4 3 3 26 1 27 -40 27 -41 0 -43
-2 -47 -32 l-4 -33 -1 33 -2 32 -135 0 -135 0 0 -86z"/>
<path d="M565 1199 c10 -16 15 -143 7 -174 -8 -28 -43 -45 -123 -59 -33 -6
-35 -9 -35 -40 1 -19 4 -32 9 -29 13 8 8 -3 -37 -83 -24 -44 -42 -81 -39 -84
2 -2 7 0 11 5 4 6 17 16 30 23 22 12 22 12 13 -7 -6 -11 -11 -39 -11 -63 0
-24 -5 -49 -12 -56 -19 -19 17 -26 44 -9 22 15 86 21 120 11 14 -4 16 -16 13
-72 l-4 -67 -80 -5 c-44 -3 -86 -11 -93 -18 -9 -9 -8 -12 5 -12 9 0 17 -3 17
-7 0 -5 17 -9 38 -11 20 -1 44 -3 52 -5 8 -1 17 3 19 8 6 15 64 32 81 25 20
-10 168 3 154 12 -7 5 -50 9 -97 10 -96 2 -93 -5 -49 91 19 39 34 60 50 63 16
5 21 11 17 24 -4 13 -1 17 12 16 9 0 19 7 21 17 2 10 -3 17 -12 17 -9 0 -16
-4 -16 -8 0 -4 -9 -8 -20 -8 -11 0 -20 7 -20 14 0 8 6 12 15 8 8 -3 15 -1 15
4 0 18 66 11 83 -8 22 -24 21 -31 -5 -59 l-21 -23 21 0 c12 0 32 10 43 21 17
17 20 29 16 62 -7 55 -26 70 -86 71 -56 1 -91 -22 -91 -61 0 -14 -6 -23 -15
-23 -16 0 -18 16 -15 103 1 33 -2 47 -12 47 -7 0 4 9 23 19 37 20 115 23 152
7 12 -6 17 -4 17 8 0 9 8 16 19 16 12 0 20 9 23 24 6 31 -8 46 -41 46 -53 0
-101 13 -101 26 0 8 -4 14 -10 14 -19 0 -10 -41 15 -64 14 -13 25 -25 25 -28
0 -2 -36 -4 -80 -4 -57 1 -80 5 -80 14 0 6 4 12 9 12 17 0 51 110 51 165 0 30
5 55 10 55 6 0 9 -3 8 -7 -1 -5 1 -19 5 -33 3 -14 9 -42 12 -62 4 -27 10 -36
20 -31 11 4 15 23 15 73 0 38 5 72 11 75 5 4 31 10 57 15 l47 8 -62 1 c-40 1
-63 -3 -67 -11 -5 -10 -7 -10 -12 0 -3 6 -23 12 -45 12 -26 0 -38 -4 -34 -11z
m92 -141 c-3 -7 -5 -2 -5 12 0 14 2 19 5 13 2 -7 2 -19 0 -25z m-147 -218 c0
-5 -9 -10 -20 -10 -11 0 -20 5 -20 10 0 6 9 10 20 10 11 0 20 -4 20 -10z m10
-120 c0 -11 -4 -20 -10 -20 -5 0 -10 8 -10 17 0 16 -1 16 -17 1 -14 -14 -14
-20 -3 -33 16 -19 8 -29 -19 -20 -25 8 -37 41 -21 60 7 8 28 15 46 15 27 0 34
-4 34 -20z"/>
<path d="M877 1204 c-4 -4 -7 -14 -7 -23 0 -11 3 -12 11 -4 6 6 10 16 7 23 -2
6 -7 8 -11 4z"/>
<path d="M968 1203 c-2 -4 -1 -53 2 -108 l5 -100 8 65 c4 36 7 76 6 90 -1 14
0 31 2 39 4 14 -17 27 -23 14z"/>
<path d="M1021 1194 c0 -11 3 -14 6 -6 3 7 2 16 -1 19 -3 4 -6 -2 -5 -13z"/>
<path d="M1100 1188 c0 -19 2 -20 10 -8 13 19 13 30 0 30 -5 0 -10 -10 -10
-22z"/>
<path d="M1192 1141 c2 -38 6 -67 11 -64 11 7 9 133 -3 133 -6 0 -9 -27 -8
-69z"/>
<path d="M1046 1191 c-4 -7 -5 -15 -2 -18 9 -9 19 4 14 18 -4 11 -6 11 -12 0z"/>
<path d="M1041 1134 c0 -11 3 -14 6 -6 3 7 2 16 -1 19 -3 4 -6 -2 -5 -13z"/>
<path d="M921 1064 c0 -11 3 -14 6 -6 3 7 2 16 -1 19 -3 4 -6 -2 -5 -13z"/>
<path d="M1191 994 c0 -11 3 -14 6 -6 3 7 2 16 -1 19 -3 4 -6 -2 -5 -13z"/>
<path d="M60 983 c1 -5 7 -19 15 -33 10 -18 14 -20 15 -8 0 23 -11 48 -21 48
-5 0 -9 -3 -9 -7z"/>
<path d="M972 930 c0 -14 2 -19 5 -12 2 6 2 18 0 25 -3 6 -5 1 -5 -13z"/>
<path d="M293 928 c-7 -9 -8 -21 -1 -38 l10 -25 9 23 c11 30 -2 60 -18 40z"/>
<path d="M830 806 c0 -8 7 -16 15 -20 13 -4 14 -2 5 14 -13 23 -20 26 -20 6z"/>
<path d="M313 660 c-11 -16 -10 -18 2 -14 8 4 15 12 15 20 0 19 -3 18 -17 -6z"/>
<path d="M342 510 c0 -14 2 -19 5 -12 2 6 2 18 0 25 -3 6 -5 1 -5 -13z"/>
<path d="M780 514 c0 -8 5 -12 10 -9 6 4 8 11 5 16 -9 14 -15 11 -15 -7z"/>
<path d="M290 451 c0 -6 5 -13 10 -16 6 -3 10 1 10 9 0 9 -4 16 -10 16 -5 0
-10 -4 -10 -9z"/>
<path d="M850 439 c0 -27 15 -31 35 -9 10 11 16 20 14 21 -35 7 -49 4 -49 -12z"/>
<path d="M527 423 c-8 -8 -101 -39 -145 -48 -23 -5 -40 -2 -57 9 -23 15 -25
15 -35 -4 -8 -15 -8 -20 2 -20 15 0 90 -50 101 -68 6 -9 13 -9 27 -2 10 5 25
7 33 4 9 -3 25 0 37 6 24 13 34 7 45 -28 5 -18 3 -22 -16 -20 -12 2 -24 -3
-27 -11 -3 -10 2 -13 21 -9 16 3 28 0 31 -8 6 -15 72 -10 92 7 22 18 4 40 -30
39 -47 -3 -58 -1 -51 10 3 5 12 7 20 3 9 -3 21 -1 28 5 6 6 38 9 70 6 37 -2
56 0 52 6 -3 6 2 10 12 10 10 0 38 12 63 26 25 14 60 26 78 26 35 0 42 17 13
35 -14 9 -25 8 -47 -4 -37 -19 -199 -10 -224 12 -9 8 -25 12 -38 8 -12 -3 -28
0 -35 6 -8 6 -17 8 -20 4z"/>
<path d="M1070 291 l-95 -6 0 -30 c0 -20 -5 -29 -14 -27 -28 6 -192 -29 -241
-51 -33 -15 -62 -22 -86 -19 -22 3 -31 7 -24 12 10 6 10 9 0 15 -7 4 -15 4
-19 -1 -8 -11 -41 -14 -41 -4 0 4 -12 8 -27 9 -16 1 -55 3 -88 5 -33 2 -86 9
-118 17 -50 12 -59 11 -67 -1 -12 -19 -13 -43 -2 -36 5 3 21 -2 36 -10 16 -7
34 -14 41 -14 7 0 25 -7 41 -14 15 -8 31 -13 36 -10 4 3 8 -2 8 -10 0 -15 12
-21 33 -17 4 1 31 -21 59 -49 48 -47 54 -50 102 -50 48 0 52 2 63 30 7 19 20
31 39 36 30 8 31 8 85 54 20 16 44 30 52 30 9 0 18 4 21 9 3 5 26 12 51 16 26
3 49 13 52 21 3 8 14 14 24 14 14 0 19 7 19 29 0 24 5 29 30 33 28 4 30 3 30
-29 0 -28 3 -33 24 -33 20 0 25 6 28 32 2 26 8 32 30 35 24 3 27 0 30 -28 5
-53 28 -48 28 5 0 42 -2 46 -22 44 -13 -1 -66 -4 -118 -7z"/>
<path d="M748 273 c-9 -10 -13 -24 -11 -30 7 -19 33 -16 33 3 0 10 6 14 15 10
19 -7 19 1 1 20 -18 18 -20 18 -38 -3z"/>
<path d="M430 270 c0 -5 5 -10 10 -10 6 0 10 5 10 10 0 6 -4 10 -10 10 -5 0
-10 -4 -10 -10z"/>
<path d="M88 253 l-88 -4 0 -40 c0 -24 4 -38 10 -34 5 3 10 17 10 31 0 21 4
25 22 22 17 -2 23 -10 23 -28 0 -37 39 -35 43 3 3 21 9 27 27 27 20 0 23 -4
19 -25 -4 -21 -1 -25 21 -25 20 0 25 5 25 26 0 17 6 28 20 31 32 8 23 23 -12
21 -18 -1 -72 -4 -120 -5z"/>
<path d="M650 210 c0 -5 5 -10 10 -10 6 0 10 5 10 10 0 6 -4 10 -10 10 -5 0
-10 -4 -10 -10z"/>
<path d="M1028 203 c-14 -4 -18 -15 -18 -57 0 -29 3 -74 6 -100 l7 -46 93 0
94 0 0 70 c0 56 -3 70 -15 70 -10 0 -15 11 -15 35 0 30 -3 35 -24 35 -21 0
-25 -6 -28 -32 -3 -29 -7 -33 -36 -36 -30 -3 -33 -1 -32 20 4 49 3 50 -32 41z"/>
<path d="M207 174 c-4 -4 -7 -17 -7 -28 1 -19 1 -20 11 -3 11 19 8 43 -4 31z"/>
<path d="M12 130 c-6 -22 -12 -60 -12 -85 l0 -46 86 3 87 3 13 50 c17 66 18
65 -11 65 -20 0 -25 5 -25 25 0 38 -36 34 -43 -5 -5 -21 -12 -30 -27 -30 -16
0 -20 7 -20 30 0 47 -32 40 -48 -10z"/>
</g>
</svg>
